<?xml version="1.0" standalone="no"?>
<!DOCTYPE svg PUBLIC "-//W3C//DTD SVG 20010904//EN"
 "http://www.w3.org/TR/2001/REC-SVG-20010904/DTD/svg10.dtd">
<svg version="1.0" xmlns="http://www.w3.org/2000/svg"
 width="1242.000000pt" height="1280.000000pt" viewBox="0 0 1242.000000 1280.000000"
 preserveAspectRatio="xMidYMid meet">
<metadata>
Created by potrace 1.15, written by Peter Selinger 2001-2017
</metadata>
<g transform="translate(0.000000,1280.000000) scale(0.100000,-0.100000)"
fill="#000000" stroke="none">
<path d="M3600 12793 c-86 -9 -213 -48 -310 -95 -100 -48 -112 -57 -241 -187
-113 -114 -142 -149 -177 -217 -70 -136 -87 -214 -86 -389 1 -128 5 -165 27
-249 163 -615 806 -1127 1461 -1163 l118 -6 -53 -17 c-81 -25 -96 -35 -197
-134 -134 -130 -172 -213 -172 -377 0 -332 280 -686 612 -775 128 -34 302 -10
387 53 68 50 191 183 217 235 95 187 48 461 -116 683 -46 61 -159 170 -220
212 -104 70 -248 122 -344 124 -32 0 -20 5 59 24 196 45 302 103 449 245 54
52 118 123 142 157 149 208 182 477 93 768 -205 671 -966 1182 -1649 1108z
m599 -1222 c171 -91 241 -131 229 -131 -4 0 -58 27 -120 61 -62 34 -175 92
-250 130 -76 38 -138 71 -138 74 0 9 112 -45 279 -134z"/>
<path d="M10495 12514 c-212 -29 -349 -99 -511 -266 -150 -153 -225 -291 -267
-488 -28 -133 -27 -345 3 -493 104 -528 479 -1012 931 -1203 292 -123 580
-117 805 17 73 43 264 226 316 302 58 86 105 190 135 302 24 90 26 117 26 280
1 162 -2 192 -27 300 -140 607 -598 1106 -1127 1229 -67 15 -232 27 -284 20z
m331 -1272 c46 -113 83 -206 81 -208 -2 -2 -24 45 -50 104 -112 260 -209 488
-213 502 -13 46 110 -223 182 -398z"/>
<path d="M1691 12285 c-147 -32 -295 -101 -421 -196 -110 -83 -326 -309 -399
-419 -222 -332 -296 -725 -195 -1030 97 -290 347 -464 644 -447 252 15 472
128 710 367 234 233 355 434 427 708 38 143 44 379 14 507 -35 145 -89 246
-185 341 -93 93 -186 145 -301 169 -86 18 -209 18 -294 0z m265 -352 c-114
-143 -194 -295 -370 -706 -147 -343 -221 -487 -314 -611 -36 -46 -140 -131
-150 -121 -3 2 14 25 37 50 102 111 224 334 341 625 98 243 138 337 192 445
59 118 142 246 189 294 29 29 115 91 126 91 2 0 -21 -30 -51 -67z"/>
<path d="M8160 12278 c-247 -53 -431 -159 -640 -368 -239 -239 -340 -441 -340
-679 0 -165 44 -276 149 -382 235 -236 663 -224 1046 30 90 59 302 264 374
361 62 83 118 191 151 290 27 82 38 259 21 343 -40 191 -206 353 -412 402 -72
17 -277 19 -349 3z m469 -418 c-12 -22 -36 -56 -52 -75 -45 -55 -232 -173
-467 -295 -358 -187 -471 -256 -579 -356 -34 -31 -61 -52 -61 -47 0 6 18 37
39 70 65 101 180 176 551 362 129 65 267 137 305 161 78 48 217 154 254 194
34 36 36 33 10 -14z"/>
<path d="M2762 11081 c-93 -35 -144 -71 -257 -185 -88 -89 -119 -127 -153
-192 -96 -187 -101 -380 -12 -510 60 -87 180 -134 292 -114 119 22 180 60 319
199 110 110 132 137 168 211 117 240 80 482 -90 574 -72 40 -187 47 -267 17z
m223 -101 c-10 -11 -21 -17 -24 -14 -3 3 3 12 13 20 28 20 32 17 11 -6z m-103
-107 c-16 -21 -41 -58 -55 -83 -15 -25 -27 -41 -27 -37 0 22 86 157 101 157 6
0 -2 -17 -19 -37z m-273 -547 c-11 -19 -27 -40 -36 -48 -14 -11 -16 -11 -8 2
13 22 57 80 61 80 2 0 -6 -15 -17 -34z m-100 -119 c-2 -1 -13 -9 -24 -17 -19
-14 -19 -14 -6 3 7 9 18 17 24 17 6 0 8 -1 6 -3z"/>
<path d="M9135 10850 c-113 -12 -227 -44 -323 -90 -117 -56 -163 -90 -280
-210 -82 -84 -111 -121 -142 -185 -71 -143 -72 -270 -6 -410 186 -396 862
-521 1298 -239 85 55 262 228 301 297 226 387 -113 811 -673 840 -52 3 -131 1
-175 -3z m135 -631 c-52 -10 -104 -18 -115 -17 -30 1 145 36 180 36 17 0 -13
-8 -65 -19z"/>
<path d="M6130 10710 c-101 -19 -191 -58 -285 -125 -76 -54 -248 -231 -302
-310 -297 -440 -293 -1103 9 -1542 63 -91 195 -217 278 -266 234 -136 501
-123 724 37 88 63 265 248 323 337 128 197 203 468 203 734 0 537 -279 1004
-670 1119 -65 20 -217 28 -280 16z m115 -990 c-9 -69 -29 -208 -45 -310 -16
-102 -34 -216 -39 -255 -9 -60 -10 -51 -6 68 3 75 9 168 14 205 6 37 19 137
31 222 11 85 25 182 30 215 5 33 13 98 17 145 l8 85 3 -125 c2 -73 -4 -177
-13 -250z"/>
<path d="M3552 10333 c-31 -6 -189 -158 -212 -204 -11 -20 -24 -65 -30 -101
-39 -220 133 -434 293 -365 16 7 64 48 107 92 103 104 124 149 124 270 1 78
-3 98 -27 150 -58 125 -145 179 -255 158z m68 -96 c0 -10 -4 -15 -10 -12 -5 3
-10 18 -10 33 0 21 2 24 10 12 5 -8 10 -23 10 -33z m-78 -508 c5 -29 4 -30 -9
-14 -14 21 -18 59 -4 51 5 -3 11 -20 13 -37z"/>
<path d="M7440 10331 c-62 -13 -113 -48 -193 -130 -98 -102 -119 -147 -125
-266 -6 -141 35 -266 131 -393 97 -128 265 -222 398 -222 94 0 146 26 246 125
113 111 135 154 141 275 8 159 -49 306 -168 433 -76 81 -141 128 -219 157 -57
22 -160 32 -211 21z"/>
<path d="M1890 9998 c-30 -4 -88 -24 -129 -44 -104 -49 -265 -208 -313 -310
-64 -134 -37 -269 66 -329 102 -60 218 -56 356 11 60 29 95 58 176 138 132
133 159 186 159 308 0 80 -2 89 -30 130 -55 78 -166 115 -285 96z m223 -162
c-10 -13 -22 -22 -26 -19 -9 6 21 43 35 43 5 0 1 -11 -9 -24z m-73 -66 c0 -5
-10 -15 -22 -21 -23 -12 -23 -12 -4 10 21 23 26 26 26 11z m-415 -240 c-10
-11 -23 -20 -29 -20 -6 1 0 10 13 20 30 26 39 26 16 0z m-85 -78 c0 -10 -22
-32 -32 -32 -5 0 -3 9 4 20 13 20 28 27 28 12z"/>
<path d="M10591 9884 c-25 -9 -62 -27 -84 -41 -56 -35 -201 -187 -241 -253
-90 -146 -92 -325 -4 -424 72 -83 182 -98 302 -43 83 38 260 216 304 305 85
173 59 362 -60 435 -59 37 -150 46 -217 21z m159 -94 c-10 -19 -30 -28 -30
-14 0 6 30 33 38 34 1 0 -2 -9 -8 -20z m-375 -600 c-10 -11 -20 -18 -23 -15
-3 3 3 14 13 25 10 11 20 18 23 15 3 -3 -3 -14 -13 -25z"/>
<path d="M571 9779 c-106 -18 -176 -61 -301 -188 -125 -126 -168 -190 -212
-313 -78 -220 -76 -470 6 -690 45 -119 88 -188 175 -280 162 -171 367 -216
558 -123 121 60 286 231 356 370 73 147 108 353 87 525 -26 226 -103 403 -235
536 -90 92 -168 137 -274 160 -74 15 -83 15 -160 3z"/>
<path d="M11767 9755 c-104 -29 -158 -65 -278 -184 -128 -128 -180 -206 -229
-340 -65 -177 -77 -407 -31 -586 84 -325 331 -530 583 -485 116 20 196 68 317
189 117 116 165 182 212 291 59 139 73 218 73 400 -1 150 -3 173 -28 255 -42
139 -99 238 -186 325 -41 42 -97 86 -123 99 -104 50 -213 63 -310 36z m70
-697 c-3 -7 -5 -2 -5 12 0 14 2 19 5 13 2 -7 2 -19 0 -25z m-13 -62 c-3 -21
-8 -35 -11 -32 -2 2 -1 20 3 40 3 21 8 35 11 32 2 -2 1 -20 -3 -40z"/>
<path d="M2847 9724 c-106 -19 -224 -66 -311 -124 -87 -59 -278 -254 -325
-333 -136 -230 -167 -540 -85 -850 129 -486 496 -930 948 -1147 202 -96 366
-135 571 -134 260 1 430 67 615 241 164 154 246 286 296 478 23 87 27 120 27
255 0 173 -19 286 -74 452 -133 396 -446 775 -817 987 -277 158 -585 222 -845
175z m304 -981 c54 -80 200 -316 356 -575 2 -5 2 -8 0 -8 -6 0 -119 174 -238
365 -51 83 -126 202 -166 265 -85 132 -56 104 48 -47z"/>
<path d="M8922 9394 c-156 -34 -269 -102 -405 -244 -75 -77 -105 -117 -136
-182 -121 -245 -81 -543 111 -834 277 -420 812 -676 1252 -599 182 32 295 96
448 253 148 153 202 281 200 482 -3 507 -500 1023 -1086 1129 -82 15 -307 12
-384 -5z"/>
<path d="M7689 9095 c-84 -17 -188 -60 -265 -110 -76 -50 -278 -251 -333 -334
-154 -227 -188 -501 -84 -678 37 -63 124 -138 191 -164 80 -31 202 -37 295
-14 153 37 245 94 406 250 159 154 228 257 283 421 30 91 33 290 5 371 -69
196 -277 305 -498 258z m152 -312 c-65 -71 -164 -212 -251 -358 -80 -135 -184
-287 -216 -316 -29 -27 -93 -69 -106 -69 -3 0 21 28 54 63 66 68 171 223 292
431 98 169 156 242 226 284 30 17 56 32 58 32 2 0 -24 -30 -57 -67z"/>
<path d="M1655 8892 c-54 -25 -177 -151 -206 -210 -20 -40 -24 -63 -24 -147 0
-87 3 -107 26 -155 49 -105 118 -159 202 -160 60 0 97 22 184 114 99 103 118
150 111 280 -10 200 -159 340 -293 278z m81 -87 c4 -20 3 -27 -3 -20 -6 6 -14
24 -17 40 -5 20 -4 27 3 20 5 -5 13 -23 17 -40z m-86 -477 c0 -7 3 -24 6 -38
4 -18 3 -21 -4 -10 -17 27 -24 60 -13 60 6 0 11 -6 11 -12z"/>
<path d="M5231 8715 c-98 -28 -151 -64 -282 -195 -112 -111 -131 -135 -167
-210 -50 -106 -66 -173 -65 -275 1 -110 30 -183 98 -252 65 -64 135 -89 230
-80 126 12 236 77 372 221 146 154 207 288 206 456 0 114 -23 184 -83 253 -71
80 -196 113 -309 82z m193 -110 c-7 -16 -24 -21 -24 -6 0 8 7 13 27 20 1 1 0
-6 -3 -14z m-113 -122 c-21 -32 -48 -77 -60 -100 -12 -24 -24 -43 -26 -43 -10
0 64 137 90 168 41 49 39 38 -4 -25z m-253 -515 c-8 -13 -21 -33 -29 -45 -7
-13 -19 -25 -25 -27 -7 -3 4 17 24 45 38 50 56 67 30 27z m-118 -138 c0 -5
-10 -15 -22 -21 -23 -12 -23 -12 -4 10 21 23 26 26 26 11z"/>
<path d="M10812 8489 c-23 -12 -80 -60 -127 -108 -111 -112 -149 -183 -154
-294 -5 -113 29 -184 103 -218 51 -23 89 -24 151 -2 66 22 220 169 263 251 80
152 54 319 -60 378 -41 21 -126 18 -176 -7z m158 -76 c0 -22 -17 -50 -25 -42
-5 6 14 59 22 59 1 0 3 -8 3 -17z m-149 -220 c-5 -10 -17 -27 -26 -38 -16 -19
-17 -19 -3 5 26 46 29 50 34 50 3 0 0 -8 -5 -17z m-155 -244 c-11 -24 -15 -28
-15 -14 -1 34 11 67 21 57 5 -5 2 -23 -6 -43z"/>
<path d="M1070 8215 c-162 -32 -278 -101 -435 -259 -139 -140 -199 -233 -251
-383 -177 -518 16 -1189 471 -1638 224 -222 489 -360 762 -396 204 -27 426 31
588 154 79 60 220 207 269 280 305 463 195 1205 -259 1746 -213 254 -499 435
-776 491 -112 23 -269 25 -369 5z m146 -982 c32 -43 125 -163 207 -268 208
-264 209 -265 204 -265 -13 0 -369 449 -446 563 -49 73 -30 56 35 -30z"/>
<path d="M6062 8095 c-63 -19 -88 -38 -184 -137 -99 -102 -126 -156 -135 -274
-14 -186 91 -406 262 -547 121 -100 241 -147 377 -147 117 0 172 24 275 124
46 44 96 100 110 123 194 328 -174 876 -586 872 -42 0 -95 -6 -119 -14z"/>
<path d="M11021 7829 c-104 -27 -262 -105 -356 -176 -120 -91 -319 -301 -398
-419 -113 -170 -190 -357 -222 -541 -22 -123 -19 -317 5 -428 58 -264 245
-469 480 -526 82 -20 250 -15 344 10 99 26 241 94 331 158 39 28 114 92 167
142 209 198 336 385 417 614 111 316 104 606 -22 852 -78 153 -231 276 -397
320 -79 21 -256 18 -349 -6z m309 -507 c-46 -143 -153 -324 -297 -502 -277
-342 -345 -429 -415 -535 -83 -125 -91 -122 -35 15 62 151 169 316 368 565
155 194 308 400 355 478 21 36 41 62 42 56 2 -5 -6 -39 -18 -77z"/>
<path d="M7977 7659 c-67 -16 -119 -50 -195 -128 -97 -99 -122 -151 -122 -253
0 -136 58 -256 179 -371 120 -113 247 -169 386 -170 125 -1 171 19 278 122
109 105 129 141 135 243 9 145 -52 276 -186 399 -85 79 -164 123 -268 149 -81
21 -144 24 -207 9z"/>
<path d="M9083 7372 c-40 -14 -71 -37 -128 -94 -97 -97 -120 -145 -118 -253 1
-132 52 -244 157 -343 62 -58 111 -85 185 -101 101 -21 154 0 258 104 108 107
137 191 109 322 -51 247 -282 429 -463 365z"/>
<path d="M4782 7235 c-194 -44 -307 -108 -458 -259 -92 -92 -118 -125 -150
-190 -38 -78 -39 -83 -39 -185 0 -97 3 -111 29 -166 35 -72 120 -159 196 -202
106 -61 201 -85 346 -91 270 -10 468 65 657 247 167 161 222 266 215 413 -4
108 -42 191 -121 271 -62 61 -179 125 -282 153 -83 23 -310 28 -393 9z"/>
<path d="M3275 6966 c-5 -2 -35 -12 -65 -21 -84 -26 -166 -80 -268 -179 -154
-149 -229 -285 -239 -436 -14 -203 108 -350 293 -352 157 -1 267 56 435 229
99 101 122 131 157 203 49 102 67 188 59 276 -16 168 -124 272 -292 280 -38 2
-74 2 -80 0z m200 -136 c-10 -11 -22 -17 -28 -13 -5 3 1 12 14 19 33 18 35 17
14 -6z m-132 -135 c-32 -35 -83 -104 -113 -152 -143 -231 -201 -314 -232 -333
-38 -23 -63 -27 -31 -5 40 28 121 140 214 295 113 189 133 216 178 240 20 11
37 19 39 20 2 0 -23 -29 -55 -65z m-453 -585 c-24 -15 -36 -11 -14 4 10 8 21
12 24 10 2 -3 -2 -9 -10 -14z"/>
<path d="M6655 6851 c-76 -26 -112 -51 -202 -145 -61 -64 -85 -95 -93 -128
-25 -92 13 -171 106 -218 100 -51 270 -33 364 38 60 46 172 165 186 199 17 39
18 116 3 146 -55 108 -222 157 -364 108z m305 -171 c-8 -5 -22 -10 -30 -10
-13 0 -13 1 0 10 8 5 22 10 30 10 13 0 13 -1 0 -10z m-505 -159 c-6 -5 -21
-12 -35 -16 -24 -7 -24 -7 -5 9 21 16 56 23 40 7z"/>
<path d="M7910 6596 c-81 -23 -127 -54 -220 -148 -147 -151 -198 -282 -187
-482 18 -324 217 -625 487 -737 45 -19 74 -23 165 -23 100 -1 115 2 169 27 78
36 232 186 275 267 183 342 -8 879 -374 1054 -113 55 -218 69 -315 42z"/>
<path d="M9625 6354 c-16 -8 -64 -51 -106 -94 -94 -96 -114 -144 -113 -265 2
-176 104 -309 235 -308 62 1 81 12 175 108 97 98 119 147 119 265 -1 171 -104
310 -231 310 -27 0 -62 -7 -79 -16z m94 -92 c1 -7 -3 -10 -9 -7 -5 3 -10 18
-9 33 0 24 1 25 9 7 5 -11 9 -26 9 -33z m-85 -468 c7 -19 8 -59 1 -52 -11 10
-23 68 -15 68 4 0 11 -7 14 -16z"/>
<path d="M6465 6191 c-204 -49 -333 -130 -541 -343 -196 -200 -300 -369 -384
-627 -71 -217 -85 -312 -85 -586 1 -210 4 -253 23 -343 78 -361 241 -641 471
-812 278 -205 631 -215 934 -26 132 82 353 301 449 447 297 446 370 1057 188
1574 -128 363 -387 630 -690 710 -99 26 -267 29 -365 6z m235 -684 c0 -237
-31 -394 -204 -1033 -30 -111 -66 -262 -81 -335 -39 -200 -45 -213 -39 -74 9
210 40 382 136 755 109 425 168 694 168 765 0 14 5 25 10 25 6 0 10 -41 10
-103z"/>
<path d="M5218 6156 c-71 -29 -115 -64 -215 -169 -181 -192 -216 -417 -84
-548 115 -116 267 -86 443 86 146 142 198 242 198 383 0 102 -16 148 -70 203
-70 73 -166 89 -272 45z m177 -86 c-10 -11 -20 -18 -23 -15 -3 3 3 14 13 25
10 11 20 18 23 15 3 -3 -3 -14 -13 -25z m-355 -579 c0 -5 -12 -16 -26 -26
l-25 -16 16 25 c17 26 35 34 35 17z"/>
<path d="M3755 6116 c-83 -21 -132 -52 -225 -146 -100 -101 -141 -172 -165
-285 -36 -171 0 -369 98 -545 62 -111 199 -246 297 -293 206 -98 349 -70 520
104 135 138 175 237 173 429 -1 131 -26 231 -88 355 -106 210 -281 355 -465
385 -78 12 -81 12 -145 -4z"/>
<path d="M2510 5630 c-81 -17 -146 -58 -235 -148 -131 -131 -174 -239 -161
-405 22 -292 247 -585 528 -685 100 -35 235 -36 322 -2 88 34 233 176 283 277
33 67 37 83 41 177 6 136 -14 227 -79 354 -103 204 -260 345 -454 410 -72 25
-184 34 -245 22z"/>
<path d="M9410 5475 c-157 -31 -297 -113 -452 -263 -241 -233 -358 -471 -358
-726 0 -171 48 -295 151 -390 131 -122 303 -154 498 -94 137 42 249 112 384
238 127 119 210 227 272 355 68 140 85 202 92 345 8 187 -29 301 -135 412
-112 117 -268 160 -452 123z m216 -398 c-48 -109 -110 -183 -392 -462 -240
-239 -279 -274 -263 -237 48 110 166 251 372 445 74 70 173 170 218 222 46 52
84 93 86 91 2 -2 -7 -28 -21 -59z"/>
<path d="M4845 5096 c-86 -28 -134 -62 -251 -180 -109 -109 -126 -131 -167
-216 -72 -147 -90 -227 -90 -400 0 -129 3 -155 27 -235 36 -118 78 -196 148
-271 101 -108 241 -160 365 -136 98 20 175 65 279 164 110 105 180 204 223
317 142 368 23 802 -256 934 -58 27 -81 32 -153 34 -50 2 -102 -3 -125 -11z"/>
<path d="M8147 4910 c-82 -21 -142 -62 -252 -174 -122 -123 -162 -187 -191
-312 -38 -163 27 -322 153 -370 69 -27 173 -16 254 27 91 48 252 211 301 305
110 210 77 427 -76 506 -45 23 -134 32 -189 18z m153 -105 c-7 -8 -17 -15 -23
-15 -5 0 -2 9 8 20 21 23 35 19 15 -5z m-70 -68 c0 -2 -10 -12 -21 -23 -22
-19 -22 -19 -8 4 12 19 29 30 29 19z m-260 -501 c0 -2 -8 -10 -17 -17 -16 -13
-17 -12 -4 4 13 16 21 21 21 13z m-80 -91 c-7 -8 -17 -15 -23 -15 -5 0 -2 9 8
20 21 23 35 19 15 -5z"/>
<path d="M3465 4252 c-22 -11 -47 -26 -55 -35 -8 -8 -43 -44 -77 -79 -44 -46
-65 -77 -73 -109 -56 -207 146 -479 356 -479 34 0 75 5 91 11 44 17 180 158
199 206 25 64 15 181 -20 256 -84 177 -292 290 -421 229z"/>
<path d="M8055 3859 c-148 -15 -320 -82 -479 -186 -107 -70 -387 -355 -465
-473 -121 -181 -201 -368 -243 -563 -30 -144 -31 -375 -1 -497 44 -176 111
-298 221 -402 197 -185 452 -233 743 -138 190 63 338 163 542 367 154 155 237
266 321 435 163 325 204 647 120 937 -103 354 -397 556 -759 520z m244 -521
c-27 -100 -125 -294 -206 -407 -61 -84 -164 -211 -404 -496 -99 -117 -218
-278 -258 -349 -18 -30 -36 -58 -40 -61 -17 -10 22 102 69 202 80 170 154 272
524 729 92 115 205 264 249 332 45 67 82 122 84 122 1 0 -7 -33 -18 -72z"/>
<path d="M4281 3604 c-102 -27 -170 -72 -287 -189 -119 -119 -162 -185 -204
-320 -31 -99 -39 -305 -15 -430 89 -479 449 -880 864 -962 148 -29 315 2 433
80 30 20 97 81 149 134 151 156 206 285 216 508 9 200 -36 390 -139 586 -157
301 -418 522 -699 593 -81 20 -243 20 -318 0z"/>
<path d="M6042 2941 c-55 -19 -64 -26 -168 -130 -75 -75 -102 -126 -115 -216
-39 -275 193 -596 465 -646 124 -22 202 8 317 123 85 86 105 115 125 193 29
107 12 220 -53 355 -38 79 -59 108 -127 175 -88 87 -150 126 -241 150 -77 20
-138 19 -203 -4z"/>
<path d="M6100 1733 c-14 -2 -59 -21 -100 -40 -64 -30 -93 -54 -201 -162 -108
-109 -131 -138 -172 -217 -146 -286 -151 -642 -12 -929 164 -340 468 -471 749
-322 76 40 255 215 314 307 109 169 164 413 142 635 -13 141 -42 244 -99 360
-61 123 -125 204 -215 272 -99 74 -159 96 -281 99 -55 1 -111 0 -125 -3z m87
-770 c-3 -10 -5 -4 -5 12 0 17 2 24 5 18 2 -7 2 -21 0 -30z m-10 -70 c-3 -10
-5 -4 -5 12 0 17 2 24 5 18 2 -7 2 -21 0 -30z"/>
</g>
</svg>
