<?xml version="1.0" standalone="no"?>
<!DOCTYPE svg PUBLIC "-//W3C//DTD SVG 20010904//EN"
 "http://www.w3.org/TR/2001/REC-SVG-20010904/DTD/svg10.dtd">
<svg version="1.0" xmlns="http://www.w3.org/2000/svg"
 width="1280.000000pt" height="1211.000000pt" viewBox="0 0 1280.000000 1211.000000"
 preserveAspectRatio="xMidYMid meet">
<metadata>
Created by potrace 1.15, written by Peter Selinger 2001-2017
</metadata>
<g transform="translate(0.000000,1211.000000) scale(0.100000,-0.100000)"
fill="#000000" stroke="none">
<path d="M4265 12096 c-115 -37 -252 -142 -296 -227 -57 -112 -30 -207 142
-495 154 -259 214 -408 228 -562 14 -158 -6 -275 -99 -582 -59 -198 -74 -285
-66 -405 10 -140 32 -280 68 -420 41 -163 41 -249 2 -312 -16 -25 -46 -60 -67
-77 -36 -28 -45 -31 -110 -31 -62 0 -80 5 -134 34 -134 72 -293 237 -434 450
-135 204 -172 348 -279 1081 -94 646 -106 691 -216 846 -124 175 -299 256
-456 210 -70 -20 -155 -83 -210 -156 -46 -62 -114 -199 -135 -275 -21 -73 -31
-343 -22 -545 10 -205 30 -298 111 -501 143 -363 351 -599 690 -783 275 -149
565 -484 698 -806 77 -186 78 -302 4 -389 -61 -71 -245 -148 -324 -135 -67 11
-233 66 -329 108 -91 40 -169 83 -411 225 -163 95 -225 116 -345 116 -64 0
-113 -5 -135 -14 -131 -55 -190 -158 -170 -299 11 -82 43 -143 113 -219 81
-86 133 -109 267 -118 129 -7 581 -52 669 -66 105 -16 201 -80 242 -160 39
-77 11 -175 -65 -231 -86 -64 -300 -146 -674 -257 -416 -125 -592 -154 -1132
-191 -463 -32 -663 -59 -787 -105 -294 -111 -529 -331 -580 -544 -21 -90 -27
-332 -10 -426 43 -232 215 -494 383 -583 101 -53 176 -66 369 -66 158 0 176 2
251 27 44 15 109 45 145 68 144 93 219 174 476 519 291 390 446 537 587 556
211 29 306 -265 176 -545 -111 -237 -278 -360 -763 -562 -346 -144 -529 -252
-665 -393 -79 -81 -92 -112 -92 -219 0 -90 29 -173 92 -265 189 -272 398 -284
666 -39 176 163 469 524 657 812 118 181 221 257 346 256 101 0 171 -32 245
-113 86 -93 144 -229 144 -336 0 -37 -16 -150 -35 -251 -45 -236 -46 -283 -2
-347 46 -69 116 -118 214 -150 72 -23 94 -26 166 -22 85 6 161 31 200 66 22
20 68 109 87 167 67 211 224 305 335 201 27 -25 35 -41 35 -67 0 -63 -226
-866 -352 -1249 -220 -671 -396 -1034 -982 -2033 -226 -385 -264 -484 -273
-707 -8 -193 23 -336 96 -452 22 -34 44 -53 88 -74 52 -26 68 -29 153 -29 116
1 194 20 315 80 163 80 275 191 359 355 92 180 126 332 221 1000 99 699 145
963 226 1312 202 877 490 1538 669 1538 73 0 193 -111 252 -232 49 -99 62
-170 62 -328 -1 -178 -25 -306 -113 -585 -100 -318 -122 -422 -122 -572 0
-199 73 -358 190 -417 71 -36 143 -47 311 -47 284 0 431 63 471 201 19 61 19
429 1 525 -18 93 -83 246 -187 434 -129 234 -130 238 -129 416 1 130 4 161 26
232 66 216 219 351 390 341 64 -3 70 -6 112 -47 81 -79 228 -396 341 -736 160
-479 246 -935 290 -1535 35 -483 59 -653 115 -822 71 -211 211 -428 311 -479
57 -29 131 -25 205 10 156 74 219 197 216 426 -2 183 -35 281 -257 745 -225
470 -269 575 -391 930 -171 495 -217 687 -218 915 -1 130 2 163 24 244 48 182
112 267 220 290 81 18 131 14 188 -15 83 -41 125 -112 197 -334 119 -363 239
-599 383 -752 73 -77 129 -108 194 -108 84 0 217 60 280 127 45 49 52 90 42
263 -5 85 -9 227 -9 315 0 155 1 162 27 212 96 183 436 230 691 96 127 -67
263 -214 326 -355 71 -156 116 -402 161 -873 11 -115 25 -232 31 -260 37 -166
197 -275 405 -275 85 0 179 26 276 77 173 90 220 184 198 398 -35 338 -142
549 -597 1183 -185 258 -222 318 -264 427 -57 146 -48 323 23 459 44 82 184
223 260 260 48 24 69 28 136 27 133 -1 326 -59 537 -161 279 -135 423 -267
534 -488 55 -110 91 -218 151 -463 97 -390 176 -586 333 -824 76 -115 240
-278 322 -321 100 -53 158 -67 246 -62 102 6 182 45 260 125 111 114 162 220
189 393 18 115 25 604 11 761 -14 153 -27 220 -77 374 -78 241 -181 415 -343
576 -159 160 -366 289 -546 341 -70 20 -102 23 -255 23 -156 0 -190 -3 -315
-30 -121 -25 -161 -29 -290 -29 -134 0 -160 3 -240 28 -149 45 -321 135 -404
212 -98 91 -146 185 -145 288 0 131 71 231 271 384 131 99 201 169 232 229 50
99 46 267 -9 380 -36 74 -101 135 -263 251 -133 95 -190 153 -224 230 -21 49
-24 68 -21 142 8 201 108 301 515 512 598 310 1047 438 1542 438 172 0 315
-13 561 -51 232 -36 341 -41 387 -16 65 35 131 140 184 298 30 86 33 104 33
219 0 100 -5 136 -21 182 -63 180 -204 304 -398 352 -350 87 -902 12 -1276
-174 -235 -117 -714 -452 -1214 -850 -374 -298 -501 -365 -739 -389 -207 -21
-402 31 -515 137 -139 131 -134 319 12 447 90 79 192 124 497 220 173 55 344
168 455 302 64 77 138 222 154 301 19 91 13 181 -19 307 -48 191 -77 233 -187
276 -84 32 -171 30 -245 -5 -92 -44 -163 -103 -349 -293 -96 -98 -202 -202
-236 -230 -80 -66 -175 -113 -245 -120 -201 -21 -467 178 -524 389 -20 76 -17
223 6 337 28 140 86 313 221 668 159 417 164 436 163 598 0 112 -3 138 -24
190 -64 167 -184 271 -370 321 -89 24 -319 25 -408 1 -226 -61 -344 -205 -475
-583 -56 -161 -77 -259 -77 -359 0 -106 23 -195 96 -377 35 -86 73 -194 85
-239 19 -73 20 -89 9 -137 -41 -182 -292 -363 -505 -362 -78 1 -118 20 -230
110 -49 40 -108 81 -130 91 -52 23 -203 43 -276 36 -148 -13 -283 -128 -464
-392 -159 -232 -176 -246 -315 -253 -158 -8 -273 39 -318 130 -18 37 -26 75
-34 180 -24 312 -78 537 -174 723 -34 66 -89 173 -123 239 -57 111 -70 145
-94 241 -5 22 -12 294 -16 605 -7 625 -5 610 -71 642 -41 21 -98 22 -155 4z"/>
</g>
</svg>
